<svg width="120" height="31" viewBox="0 0 120 31" fill="none" xmlns="http://www.w3.org/2000/svg">
<g clip-path="url(#clip0_18_69)">
<rect width="120" height="31" fill="white" style="mix-blend-mode:difference"/>
<path d="M24.4278 -0.952515H17.5124V31.9525H24.4278V-0.952515Z" fill="url(#paint0_linear_18_69)"/>
<path d="M17.8582 -0.822626H10.9428V32.0824H17.8582V-0.822626Z" fill="url(#paint1_linear_18_69)"/>
<path d="M11.2885 -0.77933H4.37317V32.1257H11.2885V-0.77933Z" fill="url(#paint2_linear_18_69)"/>
<path d="M30.9282 -1.29888H24.0128V31.6061H30.9282V-1.29888Z" fill="url(#paint3_linear_18_69)"/>
<path d="M37.8436 -1.38548H30.9282V31.5196H37.8436V-1.38548Z" fill="url(#paint4_linear_18_69)"/>
<path d="M44.344 -0.952515H37.4286V31.9525H44.344V-0.952515Z" fill="url(#paint5_linear_18_69)"/>
<path d="M4.37318 -2.94413H-3.49854V31.6927H4.37318V-2.94413Z" fill="#BDB5C2"/>
<path d="M123.149 -7.96648H44.344V32.5587H123.149V-7.96648Z" fill="#C9C9C9"/>
</g>
<path d="M5 4.31545H9.002L12.105 17.5327H12.163V4.31545H15.005V26.3967H11.728L7.9 10.2774H7.842V26.3967H5V4.31545Z" fill="#161616"/>
<path d="M24.887 26.7122C23.321 26.7122 22.1223 26.2285 21.291 25.2611C20.4596 24.2938 20.044 22.9268 20.044 21.1603V9.55187C20.044 7.78536 20.4596 6.41843 21.291 5.45106C22.1223 4.48369 23.321 4 24.887 4C26.453 4 27.6516 4.48369 28.483 5.45106C29.3143 6.41843 29.73 7.78536 29.73 9.55187V21.1603C29.73 22.9268 29.3143 24.2938 28.483 25.2611C27.6516 26.2285 26.453 26.7122 24.887 26.7122ZM24.887 23.5577C25.989 23.5577 26.54 22.8322 26.54 21.3811V9.33106C26.54 7.88 25.989 7.15447 24.887 7.15447C23.785 7.15447 23.234 7.88 23.234 9.33106V21.3811C23.234 22.8322 23.785 23.5577 24.887 23.5577Z" fill="#161616"/>
<path d="M37.168 7.46992H33.833V4.31545H43.693V7.46992H40.358V26.3967H37.168V7.46992Z" fill="#161616"/>
<path d="M63.2266 4.31545H67.9536C69.5969 4.31545 70.7956 4.73604 71.5496 5.57724C72.3036 6.3974 72.6806 7.6697 72.6806 9.39414V10.7506C72.6806 13.0428 71.9846 14.4939 70.5926 15.1037V15.1668C71.3659 15.4192 71.9072 15.9344 72.2166 16.7125C72.5452 17.4906 72.7096 18.5316 72.7096 19.8354V23.7154C72.7096 24.3463 72.7289 24.8616 72.7676 25.2611C72.8062 25.6397 72.9029 26.0182 73.0576 26.3967H69.8096C69.6936 26.0392 69.6162 25.7028 69.5776 25.3873C69.5389 25.0719 69.5196 24.5041 69.5196 23.6839V19.6462C69.5196 18.6367 69.3649 17.9322 69.0556 17.5327C68.7656 17.1331 68.2532 16.9333 67.5186 16.9333H66.4166V26.3967H63.2266V4.31545ZM67.5766 13.7789C68.2146 13.7789 68.6882 13.6001 68.9976 13.2426C69.3262 12.8851 69.4906 12.2857 69.4906 11.4446V9.74114C69.4906 8.942 69.3552 8.36368 69.0846 8.00618C68.8332 7.64867 68.4272 7.46992 67.8666 7.46992H66.4166V13.7789H67.5766Z" fill="#161616"/>
<path d="M77.8229 4.31545H86.5229V7.46992H81.0129V13.3057H85.3919V16.4602H81.0129V23.2423H86.5229V26.3967H77.8229V4.31545Z" fill="#161616"/>
<path d="M93.723 4.31545H98.044L101.35 26.3967H98.16L97.58 22.012V22.0751H93.955L93.375 26.3967H90.417L93.723 4.31545ZM97.203 19.0784L95.782 8.1639H95.724L94.332 19.0784H97.203Z" fill="#161616"/>
<path d="M105.798 4.31545H108.988V23.2423H114.237V26.3967H105.798V4.31545Z" fill="#161616"/>
<defs>
<linearGradient id="paint0_linear_18_69" x1="20.9701" y1="-0.519554" x2="27.0215" y2="31.1074" gradientUnits="userSpaceOnUse">
<stop stop-color="#CF4542"/>
<stop offset="1" stop-color="#CD868C"/>
</linearGradient>
<linearGradient id="paint1_linear_18_69" x1="14.4005" y1="-0.389665" x2="20.4519" y2="31.2373" gradientUnits="userSpaceOnUse">
<stop stop-color="#B15377"/>
<stop offset="1" stop-color="#C0778A"/>
</linearGradient>
<linearGradient id="paint2_linear_18_69" x1="7.83085" y1="-0.346369" x2="13.8822" y2="31.2805" gradientUnits="userSpaceOnUse">
<stop stop-color="#A86791"/>
<stop offset="1" stop-color="#A6769C"/>
</linearGradient>
<linearGradient id="paint3_linear_18_69" x1="27.4705" y1="-0.865922" x2="33.5219" y2="30.761" gradientUnits="userSpaceOnUse">
<stop stop-color="#DD4C39"/>
<stop offset="1" stop-color="#CA8F91"/>
</linearGradient>
<linearGradient id="paint4_linear_18_69" x1="34.3859" y1="-0.952514" x2="40.4373" y2="30.6744" gradientUnits="userSpaceOnUse">
<stop stop-color="#EA6B34"/>
<stop offset="1" stop-color="#DA9279"/>
</linearGradient>
<linearGradient id="paint5_linear_18_69" x1="40.8863" y1="-0.519554" x2="46.9377" y2="31.1074" gradientUnits="userSpaceOnUse">
<stop stop-color="#E29C68"/>
<stop offset="1" stop-color="#DBA583"/>
</linearGradient>
<clipPath id="clip0_18_69">
<rect width="120" height="31" fill="white"/>
</clipPath>
</defs>
</svg>
